# xmcd
#
# Track frame offsets: 
#        150
#        22112
#        39919
#        54846
#        96762
#        110868
#        129341
#        150494
#        164249
#        186505
#        208972
#
# Disc length: 3089 seconds
#
# Revision: 0
# Processed by: cddbd v1.5.1PL0 Copyright (c) Steve Scherf et al.
# Submitted via: ExactAudioCopy v0.95a5
#
DISCID=9b0c0f0b
DTITLE=Buddy Miller - Universal United House Of Prayer
DYEAR=2005
DGENRE=Country
TTITLE0=Worry Too Much
TTITLE1=There's A Higher Power
TTITLE2=Shelter Me
TTITLE3=With God On Our Side
TTITLE4=Wide River To Cross
TTITLE5=Fire And Water
TTITLE6=Don't Wait
TTITLE7=This Old World
TTITLE8=Is That You
TTITLE9=Returning To The Living Water
TTITLE10=Fall On The Rock
EXTD=
EXTT0=
EXTT1=
EXTT2=
EXTT3=
EXTT4=
EXTT5=
EXTT6=
EXTT7=
EXTT8=
EXTT9=
EXTT10=
PLAYORDER=
